<?xml version="1.0" encoding="UTF-8"?>
<svg id="Layer_1" data-name="Layer 1" xmlns="http://www.w3.org/2000/svg" viewBox="0 0 82.64 73.64">
  <path d="M8.1,68.3c-.1-.05-.2-.09-.29-.14-.07-.11-.13-.22-.2-.33,.16,.16,.33,.31,.49,.47Z"/>
  <path d="M3.37,20.87s0,.04,0,.06c0,0,0,0,.01,0,0-.01,0-.03,0-.05Z"/>
  <path d="M8.1,68.3c-.1-.05-.2-.09-.29-.14-.07-.11-.13-.22-.2-.33,.16,.16,.33,.31,.49,.47Z"/>
  <path d="M44.51,59.71c-.73,1.28-1.57,2.51-2.5,3.66-4.32,5.34-10.62,9.1-17.98,10.05-4.17,.54-8.24,.12-12-1.08-.18-.13-.37-.27-.55-.41-1.75-1.31-3.34-2.82-4.75-4.51C3.31,63.36,.98,58.3,.24,52.64c-.77-5.96,.34-11.72,2.86-16.7,.37-.73,.77-1.45,1.21-2.15,4.4-7.1,11.84-12.23,20.76-13.39,1.95-.25,3.88-.3,5.77-.17,1.26,.09,2.5,.26,3.72,.51,.55,.11,1.09,.24,1.62,.38-.04,.05-.08,.1-.11,.15-.3,.39-.59,.78-.87,1.19-3.47,5.02-5.16,11.29-4.32,17.82,.45,3.44,1.56,6.64,3.19,9.47,1.32,2.3,2.99,4.36,4.92,6.13,1.22,1.11,2.54,2.1,3.95,2.96,.51,.31,1.03,.6,1.56,.87Z"/>
  <path d="M38.12,13.94c.73-1.28,1.57-2.51,2.5-3.66C44.95,4.94,51.25,1.19,58.61,.23c4.17-.54,8.24-.12,12,1.08,.18,.13,.37,.27,.55,.41,1.75,1.31,3.34,2.82,4.75,4.51,3.42,4.07,5.75,9.13,6.48,14.79,.77,5.96-.34,11.72-2.86,16.7-.37,.73-.77,1.45-1.21,2.15-4.4,7.1-11.84,12.23-20.76,13.39-1.95,.25-3.88,.3-5.77,.17-1.26-.09-2.5-.26-3.72-.51-.55-.11-1.09-.24-1.62-.38,.04-.05,.08-.1,.11-.15,.3-.39,.59-.78,.87-1.19,3.47-5.02,5.16-11.29,4.32-17.82-.45-3.44-1.56-6.64-3.19-9.47-1.32-2.3-2.99-4.36-4.92-6.13-1.22-1.11-2.54-2.1-3.95-2.96-.51-.31-1.03-.6-1.56-.87Z"/>
  <path d="M3.37,20.87s0,.04,0,.06c0,0,0,0,.01,0,0-.01,0-.03,0-.05Z"/>
</svg>