<?xml version="1.0" encoding="UTF-8"?>
<svg id="Layer_1" data-name="Layer 1" xmlns="http://www.w3.org/2000/svg" viewBox="0 0 455.77 73.64">
  <g>
    <path d="M155.69,55.1c-2.27,2.21-4.97,3.93-8.08,5.18-3.12,1.24-6.51,1.87-10.19,1.87s-7.12-.63-10.26-1.9c-3.14-1.27-5.86-3.04-8.18-5.32-2.32-2.28-4.11-4.96-5.39-8.04s-1.92-6.43-1.92-10.06,.64-6.99,1.92-10.06,3.07-5.75,5.39-8.04c2.32-2.28,5.04-4.06,8.18-5.32,3.14-1.27,6.56-1.9,10.26-1.9s7.03,.62,10.13,1.87c3.1,1.24,5.79,2.98,8.08,5.21l-7.99,8.02c-1.23-1.6-2.75-2.86-4.55-3.77s-3.75-1.36-5.88-1.36c-1.97,0-3.8,.39-5.49,1.17s-3.16,1.86-4.42,3.25-2.23,3.01-2.92,4.87-1.04,3.87-1.04,6.04,.35,4.24,1.04,6.09c.69,1.85,1.67,3.47,2.92,4.87,1.25,1.4,2.73,2.48,4.42,3.26s3.52,1.17,5.49,1.17c2.12,0,4.07-.45,5.86-1.36,1.79-.91,3.31-2.16,4.56-3.77l8.05,8.05Z"/>
    <path d="M185.79,62.14c-3.72,0-7.15-.63-10.27-1.9-3.13-1.27-5.85-3.04-8.16-5.32-2.32-2.28-4.11-4.96-5.39-8.04-1.28-3.07-1.92-6.43-1.92-10.06s.64-6.99,1.92-10.06c1.28-3.07,3.07-5.75,5.37-8.04,2.3-2.28,5.03-4.06,8.16-5.32,3.14-1.27,6.57-1.9,10.29-1.9s7.15,.63,10.27,1.9c3.13,1.27,5.84,3.04,8.13,5.32,2.29,2.28,4.08,4.96,5.36,8.04,1.28,3.07,1.92,6.43,1.92,10.06s-.63,6.99-1.9,10.06c-1.27,3.07-3.05,5.75-5.36,8.04-2.31,2.28-5.02,4.06-8.15,5.32-3.13,1.27-6.55,1.9-10.27,1.9Zm0-9.97c1.99,0,3.84-.39,5.53-1.17,1.7-.78,3.18-1.87,4.45-3.26,1.27-1.39,2.25-3.02,2.95-4.89,.71-1.86,1.06-3.87,1.06-6.04s-.35-4.18-1.06-6.04c-.7-1.86-1.68-3.5-2.94-4.9-1.25-1.41-2.73-2.49-4.43-3.26-1.7-.77-3.56-1.15-5.57-1.15s-3.85,.38-5.57,1.15c-1.72,.77-3.21,1.86-4.48,3.26-1.27,1.41-2.25,3.04-2.95,4.9s-1.05,3.87-1.05,6.04,.35,4.18,1.05,6.04,1.69,3.5,2.95,4.9c1.27,1.41,2.76,2.49,4.48,3.26,1.72,.77,3.58,1.15,5.57,1.15Z"/>
    <path d="M259.03,61.17h-12.63l-9.77-16.85h-8.02v16.85h-11.43V12.47h20.16c4.07,0,7.54,.63,10.42,1.88,2.88,1.25,5.08,3.07,6.6,5.45,1.53,2.38,2.29,5.25,2.29,8.6s-.74,6.07-2.23,8.41c-1.48,2.34-3.6,4.13-6.35,5.39l10.94,18.96Zm-30.42-25.78h7.86c2.77,0,4.88-.55,6.33-1.66,1.45-1.1,2.18-2.71,2.18-4.8s-.73-3.73-2.18-4.84c-1.45-1.1-3.56-1.66-6.33-1.66h-7.86v12.95Z"/>
    <path d="M263.64,61.17V12.47h16.59c5.87,0,10.95,1,15.26,3,4.31,2,7.65,4.83,10.03,8.47,2.38,3.65,3.57,7.94,3.57,12.87s-1.19,9.2-3.57,12.86c-2.38,3.66-5.72,6.49-10.03,8.49-4.31,2-9.39,3-15.26,3h-16.59Zm11.43-9.97h5.55c3.59,0,6.63-.56,9.12-1.67,2.49-1.12,4.39-2.74,5.7-4.89s1.97-4.75,1.97-7.82-.66-5.68-1.97-7.82-3.21-3.77-5.7-4.89c-2.49-1.11-5.53-1.67-9.12-1.67h-5.55v28.76Z"/>
    <path d="M322.76,61.17h-11.98l19.22-48.7h12.01l19.19,48.7h-11.98l-3.57-9.58h-19.32l-3.57,9.58Zm7.24-19.54h12.01l-6.01-15.97-6.01,15.97Z"/>
    <path d="M397.82,61.17h-32.46V12.47h11.43V51.2h21.04v9.97Z"/>
    <path d="M402.43,61.17V12.47h11.43V61.17h-11.43Z"/>
    <path d="M418.79,55.75l5.39-8.7c1.54,1.21,3,2.2,4.38,2.97,1.39,.77,2.75,1.34,4.09,1.7s2.7,.55,4.09,.55c1.52,0,2.82-.2,3.91-.6,1.09-.4,1.94-.97,2.53-1.7s.89-1.61,.89-2.63c0-1.19-.4-2.2-1.2-3.04-.8-.83-1.86-1.57-3.17-2.21-1.31-.64-2.73-1.27-4.27-1.9-1.56-.65-3.14-1.35-4.76-2.11s-3.09-1.68-4.43-2.78c-1.34-1.09-2.43-2.42-3.26-3.98s-1.25-3.45-1.25-5.68c0-2.94,.74-5.47,2.22-7.58,1.48-2.11,3.52-3.73,6.1-4.87,2.59-1.14,5.51-1.7,8.78-1.7,2.38,0,4.86,.31,7.45,.94s5.19,1.6,7.81,2.92l-4.45,9.19c-1.56-.95-3.24-1.7-5.05-2.26-1.81-.55-3.49-.83-5.05-.83-1.23,0-2.31,.18-3.23,.54-.92,.36-1.63,.86-2.14,1.51s-.76,1.41-.76,2.27c0,1.1,.39,2.06,1.18,2.87,.79,.81,1.82,1.54,3.1,2.19s2.66,1.31,4.16,1.98c1.58,.67,3.19,1.42,4.82,2.24s3.14,1.79,4.51,2.91c1.37,1.11,2.48,2.45,3.31,4.01s1.25,3.43,1.25,5.62c0,2.88-.77,5.42-2.32,7.61-1.55,2.2-3.71,3.9-6.49,5.11s-6.01,1.82-9.69,1.82c-3.4,0-6.66-.55-9.79-1.64-3.13-1.09-6.02-2.68-8.68-4.76Z"/>
  </g>
  <g>
    <path d="M8.1,68.3c-.1-.05-.2-.09-.29-.14-.07-.11-.13-.22-.2-.33,.16,.16,.33,.31,.49,.47Z"/>
    <path d="M3.37,20.87s0,.04,0,.06c0,0,0,0,.01,0,0-.01,0-.03,0-.05Z"/>
    <path d="M8.1,68.3c-.1-.05-.2-.09-.29-.14-.07-.11-.13-.22-.2-.33,.16,.16,.33,.31,.49,.47Z"/>
    <path d="M44.51,59.71c-.73,1.28-1.57,2.51-2.5,3.66-4.32,5.34-10.62,9.1-17.98,10.05-4.17,.54-8.24,.12-12-1.08-.18-.13-.37-.27-.55-.41-1.75-1.31-3.34-2.82-4.75-4.51C3.31,63.36,.98,58.3,.24,52.64c-.77-5.96,.34-11.72,2.86-16.7,.37-.73,.77-1.45,1.21-2.15,4.4-7.1,11.84-12.23,20.76-13.39,1.95-.25,3.88-.3,5.77-.17,1.26,.09,2.5,.26,3.72,.51,.55,.11,1.09,.24,1.62,.38-.04,.05-.08,.1-.11,.15-.3,.39-.59,.78-.87,1.19-3.47,5.02-5.16,11.29-4.32,17.82,.45,3.44,1.56,6.64,3.19,9.47,1.32,2.3,2.99,4.36,4.92,6.13,1.22,1.11,2.54,2.1,3.95,2.96,.51,.31,1.03,.6,1.56,.87Z"/>
    <path d="M38.12,13.94c.73-1.28,1.57-2.51,2.5-3.66C44.95,4.94,51.25,1.19,58.61,.23c4.17-.54,8.24-.12,12,1.08,.18,.13,.37,.27,.55,.41,1.75,1.31,3.34,2.82,4.75,4.51,3.42,4.07,5.75,9.13,6.48,14.79,.77,5.96-.34,11.72-2.86,16.7-.37,.73-.77,1.45-1.21,2.15-4.4,7.1-11.84,12.23-20.76,13.39-1.95,.25-3.88,.3-5.77,.17-1.26-.09-2.5-.26-3.72-.51-.55-.11-1.09-.24-1.62-.38,.04-.05,.08-.1,.11-.15,.3-.39,.59-.78,.87-1.19,3.47-5.02,5.16-11.29,4.32-17.82-.45-3.44-1.56-6.64-3.19-9.47-1.32-2.3-2.99-4.36-4.92-6.13-1.22-1.11-2.54-2.1-3.95-2.96-.51-.31-1.03-.6-1.56-.87Z"/>
    <path d="M3.37,20.87s0,.04,0,.06c0,0,0,0,.01,0,0-.01,0-.03,0-.05Z"/>
  </g>
</svg>