<?xml version="1.0" encoding="UTF-8"?>
<svg id="Layer_1" data-name="Layer 1" xmlns="http://www.w3.org/2000/svg" viewBox="0 0 143.56 143.56">
  <defs>
    <style>
      .cls-1 {
        fill: #fff;
      }
    </style>
  </defs>
  <path class="cls-1" d="M0,0V143.56H143.56V0H0ZM33.83,55.82s0,.03,0,.05c0,0,0,0-.01,0,0-.02,0-.04,0-.06Zm38.64,42.5c-4.32,5.34-10.62,9.1-17.98,10.05-4.17,.54-8.24,.12-12-1.08-.18-.13-.37-.27-.55-.41-1.75-1.31-3.34-2.82-4.75-4.51-3.42-4.07-5.75-9.13-6.48-14.79-.77-5.96,.34-11.72,2.86-16.7,.37-.73,.77-1.45,1.21-2.15,4.4-7.1,11.84-12.23,20.76-13.39,1.95-.25,3.88-.3,5.77-.17,1.26,.09,2.5,.26,3.72,.51,.55,.11,1.09,.24,1.62,.38-.04,.05-.08,.1-.11,.15-.3,.39-.59,.78-.87,1.19-3.47,5.02-5.16,11.29-4.32,17.82,.45,3.44,1.56,6.64,3.19,9.47,1.32,2.3,2.99,4.36,4.92,6.13,1.22,1.11,2.54,2.1,3.95,2.96,.51,.31,1.03,.6,1.56,.87-.73,1.28-1.57,2.51-2.5,3.66Zm37.52-25.65c-.37,.73-.77,1.45-1.21,2.15-4.4,7.1-11.84,12.23-20.76,13.39-1.95,.25-3.88,.3-5.77,.17-1.26-.09-2.51-.26-3.72-.51-.55-.11-1.09-.24-1.62-.38,.04-.05,.08-.1,.11-.15,.3-.39,.59-.78,.87-1.19,3.47-5.02,5.16-11.29,4.32-17.82-.45-3.44-1.56-6.64-3.19-9.47-1.32-2.3-2.99-4.36-4.92-6.13-1.22-1.11-2.54-2.1-3.95-2.96-.51-.31-1.03-.6-1.56-.87,.73-1.28,1.57-2.51,2.5-3.66,4.32-5.34,10.62-9.1,17.98-10.05,4.17-.54,8.24-.12,12,1.08,.18,.13,.37,.27,.55,.41,1.75,1.31,3.34,2.82,4.75,4.51,3.42,4.07,5.75,9.13,6.48,14.79,.77,5.96-.34,11.72-2.86,16.7Z"/>
</svg>